<mxfile host="app.diagrams.net" modified="2021-06-07T06:42:14.441Z" agent="5.0 (Macintosh; Intel Mac OS X 10_15_7) AppleWebKit/537.36 (KHTML, like Gecko) Chrome/91.0.4472.77 Safari/537.36" etag="pFPcomEl6kdMbteCQ6O9" version="14.7.6" type="github">
  <diagram id="C5RBs43oDa-KdzZeNtuy" name="Page-1">
    <mxGraphModel dx="1426" dy="769" grid="1" gridSize="10" guides="1" tooltips="1" connect="1" arrows="1" fold="1" page="1" pageScale="1" pageWidth="3300" pageHeight="4681" math="0" shadow="0">
      <root>
        <mxCell id="WIyWlLk6GJQsqaUBKTNV-0" />
        <mxCell id="WIyWlLk6GJQsqaUBKTNV-1" parent="WIyWlLk6GJQsqaUBKTNV-0" />
        <mxCell id="ZswmSur_MUluE2RUJ2E8-3" value="" style="edgeStyle=orthogonalEdgeStyle;rounded=0;orthogonalLoop=1;jettySize=auto;html=1;" edge="1" parent="WIyWlLk6GJQsqaUBKTNV-1" source="WIyWlLk6GJQsqaUBKTNV-3" target="ZswmSur_MUluE2RUJ2E8-2">
          <mxGeometry relative="1" as="geometry" />
        </mxCell>
        <mxCell id="WIyWlLk6GJQsqaUBKTNV-3" value="开始启动" style="rounded=1;whiteSpace=wrap;html=1;fontSize=12;glass=0;strokeWidth=1;shadow=0;" parent="WIyWlLk6GJQsqaUBKTNV-1" vertex="1">
          <mxGeometry x="590" y="110" width="120" height="40" as="geometry" />
        </mxCell>
        <mxCell id="ZswmSur_MUluE2RUJ2E8-9" value="" style="edgeStyle=orthogonalEdgeStyle;rounded=0;orthogonalLoop=1;jettySize=auto;html=1;" edge="1" parent="WIyWlLk6GJQsqaUBKTNV-1" source="ZswmSur_MUluE2RUJ2E8-2" target="ZswmSur_MUluE2RUJ2E8-8">
          <mxGeometry relative="1" as="geometry" />
        </mxCell>
        <mxCell id="ZswmSur_MUluE2RUJ2E8-10" value="通过数据库以及本地初始化生成" style="edgeLabel;html=1;align=center;verticalAlign=middle;resizable=0;points=[];" vertex="1" connectable="0" parent="ZswmSur_MUluE2RUJ2E8-9">
          <mxGeometry x="-0.1909" y="-1" relative="1" as="geometry">
            <mxPoint x="-80" y="9" as="offset" />
          </mxGeometry>
        </mxCell>
        <mxCell id="ZswmSur_MUluE2RUJ2E8-15" style="edgeStyle=orthogonalEdgeStyle;rounded=0;orthogonalLoop=1;jettySize=auto;html=1;entryX=0.5;entryY=0;entryDx=0;entryDy=0;" edge="1" parent="WIyWlLk6GJQsqaUBKTNV-1" source="ZswmSur_MUluE2RUJ2E8-2" target="ZswmSur_MUluE2RUJ2E8-11">
          <mxGeometry relative="1" as="geometry" />
        </mxCell>
        <mxCell id="ZswmSur_MUluE2RUJ2E8-16" value="load" style="edgeLabel;html=1;align=center;verticalAlign=middle;resizable=0;points=[];" vertex="1" connectable="0" parent="ZswmSur_MUluE2RUJ2E8-15">
          <mxGeometry x="-0.3714" y="1" relative="1" as="geometry">
            <mxPoint as="offset" />
          </mxGeometry>
        </mxCell>
        <mxCell id="ZswmSur_MUluE2RUJ2E8-25" style="edgeStyle=orthogonalEdgeStyle;rounded=0;orthogonalLoop=1;jettySize=auto;html=1;entryX=1;entryY=0.5;entryDx=0;entryDy=0;" edge="1" parent="WIyWlLk6GJQsqaUBKTNV-1" source="ZswmSur_MUluE2RUJ2E8-2" target="ZswmSur_MUluE2RUJ2E8-21">
          <mxGeometry relative="1" as="geometry" />
        </mxCell>
        <mxCell id="ZswmSur_MUluE2RUJ2E8-2" value="主进程" style="whiteSpace=wrap;html=1;rounded=1;shadow=0;strokeWidth=1;glass=0;" vertex="1" parent="WIyWlLk6GJQsqaUBKTNV-1">
          <mxGeometry x="580" y="235" width="140" height="55" as="geometry" />
        </mxCell>
        <mxCell id="ZswmSur_MUluE2RUJ2E8-46" style="edgeStyle=orthogonalEdgeStyle;rounded=0;orthogonalLoop=1;jettySize=auto;html=1;" edge="1" parent="WIyWlLk6GJQsqaUBKTNV-1" source="ZswmSur_MUluE2RUJ2E8-8" target="ZswmSur_MUluE2RUJ2E8-21">
          <mxGeometry relative="1" as="geometry">
            <Array as="points">
              <mxPoint x="180" y="320" />
            </Array>
          </mxGeometry>
        </mxCell>
        <mxCell id="ZswmSur_MUluE2RUJ2E8-47" value="获取数据" style="edgeLabel;html=1;align=center;verticalAlign=middle;resizable=0;points=[];" vertex="1" connectable="0" parent="ZswmSur_MUluE2RUJ2E8-46">
          <mxGeometry x="-0.0429" y="-3" relative="1" as="geometry">
            <mxPoint as="offset" />
          </mxGeometry>
        </mxCell>
        <mxCell id="ZswmSur_MUluE2RUJ2E8-8" value="后端数据" style="shape=cylinder;whiteSpace=wrap;html=1;boundedLbl=1;backgroundOutline=1;rounded=1;shadow=0;strokeWidth=1;glass=0;" vertex="1" parent="WIyWlLk6GJQsqaUBKTNV-1">
          <mxGeometry x="150" y="222.5" width="60" height="77.5" as="geometry" />
        </mxCell>
        <mxCell id="ZswmSur_MUluE2RUJ2E8-23" style="edgeStyle=orthogonalEdgeStyle;rounded=0;orthogonalLoop=1;jettySize=auto;html=1;entryX=1;entryY=0.5;entryDx=0;entryDy=0;" edge="1" parent="WIyWlLk6GJQsqaUBKTNV-1" source="ZswmSur_MUluE2RUJ2E8-11" target="ZswmSur_MUluE2RUJ2E8-22">
          <mxGeometry relative="1" as="geometry" />
        </mxCell>
        <mxCell id="ZswmSur_MUluE2RUJ2E8-35" value="创建引入" style="edgeLabel;html=1;align=center;verticalAlign=middle;resizable=0;points=[];" vertex="1" connectable="0" parent="ZswmSur_MUluE2RUJ2E8-23">
          <mxGeometry x="0.0828" y="-3" relative="1" as="geometry">
            <mxPoint as="offset" />
          </mxGeometry>
        </mxCell>
        <mxCell id="ZswmSur_MUluE2RUJ2E8-33" style="edgeStyle=orthogonalEdgeStyle;rounded=0;orthogonalLoop=1;jettySize=auto;html=1;entryX=1;entryY=0.5;entryDx=0;entryDy=0;" edge="1" parent="WIyWlLk6GJQsqaUBKTNV-1" source="ZswmSur_MUluE2RUJ2E8-11" target="ZswmSur_MUluE2RUJ2E8-13">
          <mxGeometry relative="1" as="geometry" />
        </mxCell>
        <mxCell id="ZswmSur_MUluE2RUJ2E8-34" value="引入" style="edgeLabel;html=1;align=center;verticalAlign=middle;resizable=0;points=[];" vertex="1" connectable="0" parent="ZswmSur_MUluE2RUJ2E8-33">
          <mxGeometry x="0.13" y="1" relative="1" as="geometry">
            <mxPoint as="offset" />
          </mxGeometry>
        </mxCell>
        <mxCell id="ZswmSur_MUluE2RUJ2E8-11" value="渲染进程" style="whiteSpace=wrap;html=1;rounded=1;shadow=0;strokeWidth=1;glass=0;" vertex="1" parent="WIyWlLk6GJQsqaUBKTNV-1">
          <mxGeometry x="590" y="602.5" width="120" height="60" as="geometry" />
        </mxCell>
        <mxCell id="ZswmSur_MUluE2RUJ2E8-26" style="edgeStyle=orthogonalEdgeStyle;rounded=0;orthogonalLoop=1;jettySize=auto;html=1;entryX=0;entryY=0.5;entryDx=0;entryDy=0;" edge="1" parent="WIyWlLk6GJQsqaUBKTNV-1" source="ZswmSur_MUluE2RUJ2E8-13" target="ZswmSur_MUluE2RUJ2E8-22">
          <mxGeometry relative="1" as="geometry">
            <Array as="points">
              <mxPoint x="160" y="550" />
            </Array>
          </mxGeometry>
        </mxCell>
        <mxCell id="ZswmSur_MUluE2RUJ2E8-27" value="第一次创建获取" style="edgeLabel;html=1;align=center;verticalAlign=middle;resizable=0;points=[];" vertex="1" connectable="0" parent="ZswmSur_MUluE2RUJ2E8-26">
          <mxGeometry x="0.027" relative="1" as="geometry">
            <mxPoint as="offset" />
          </mxGeometry>
        </mxCell>
        <mxCell id="ZswmSur_MUluE2RUJ2E8-40" style="edgeStyle=orthogonalEdgeStyle;rounded=0;orthogonalLoop=1;jettySize=auto;html=1;entryX=0;entryY=0.25;entryDx=0;entryDy=0;" edge="1" parent="WIyWlLk6GJQsqaUBKTNV-1" source="ZswmSur_MUluE2RUJ2E8-13" target="ZswmSur_MUluE2RUJ2E8-22">
          <mxGeometry relative="1" as="geometry">
            <Array as="points">
              <mxPoint x="110" y="633" />
              <mxPoint x="110" y="530" />
            </Array>
          </mxGeometry>
        </mxCell>
        <mxCell id="ZswmSur_MUluE2RUJ2E8-41" value="更新数据" style="edgeLabel;html=1;align=center;verticalAlign=middle;resizable=0;points=[];" vertex="1" connectable="0" parent="ZswmSur_MUluE2RUJ2E8-40">
          <mxGeometry x="-0.124" y="-2" relative="1" as="geometry">
            <mxPoint x="1" as="offset" />
          </mxGeometry>
        </mxCell>
        <mxCell id="ZswmSur_MUluE2RUJ2E8-13" value="前端数据" style="shape=cylinder;whiteSpace=wrap;html=1;boundedLbl=1;backgroundOutline=1;rounded=1;shadow=0;strokeWidth=1;glass=0;" vertex="1" parent="WIyWlLk6GJQsqaUBKTNV-1">
          <mxGeometry x="120" y="600" width="70" height="65" as="geometry" />
        </mxCell>
        <mxCell id="ZswmSur_MUluE2RUJ2E8-36" style="edgeStyle=orthogonalEdgeStyle;rounded=0;orthogonalLoop=1;jettySize=auto;html=1;entryX=0.75;entryY=0;entryDx=0;entryDy=0;" edge="1" parent="WIyWlLk6GJQsqaUBKTNV-1" source="ZswmSur_MUluE2RUJ2E8-21" target="ZswmSur_MUluE2RUJ2E8-22">
          <mxGeometry relative="1" as="geometry">
            <Array as="points">
              <mxPoint x="360" y="410" />
              <mxPoint x="360" y="410" />
            </Array>
          </mxGeometry>
        </mxCell>
        <mxCell id="ZswmSur_MUluE2RUJ2E8-37" value="SYSTEM_ENV_SYNC" style="edgeLabel;html=1;align=center;verticalAlign=middle;resizable=0;points=[];" vertex="1" connectable="0" parent="ZswmSur_MUluE2RUJ2E8-36">
          <mxGeometry x="-0.1608" y="1" relative="1" as="geometry">
            <mxPoint x="59" y="1" as="offset" />
          </mxGeometry>
        </mxCell>
        <mxCell id="ZswmSur_MUluE2RUJ2E8-44" style="edgeStyle=orthogonalEdgeStyle;rounded=0;orthogonalLoop=1;jettySize=auto;html=1;entryX=0;entryY=0.5;entryDx=0;entryDy=0;" edge="1" parent="WIyWlLk6GJQsqaUBKTNV-1" source="ZswmSur_MUluE2RUJ2E8-21" target="ZswmSur_MUluE2RUJ2E8-8">
          <mxGeometry relative="1" as="geometry">
            <Array as="points">
              <mxPoint x="130" y="360" />
              <mxPoint x="130" y="261" />
            </Array>
          </mxGeometry>
        </mxCell>
        <mxCell id="ZswmSur_MUluE2RUJ2E8-45" value="同步更新数据" style="edgeLabel;html=1;align=center;verticalAlign=middle;resizable=0;points=[];" vertex="1" connectable="0" parent="ZswmSur_MUluE2RUJ2E8-44">
          <mxGeometry x="-0.328" y="1" relative="1" as="geometry">
            <mxPoint as="offset" />
          </mxGeometry>
        </mxCell>
        <mxCell id="ZswmSur_MUluE2RUJ2E8-21" value="jsbridge" style="whiteSpace=wrap;html=1;aspect=fixed;" vertex="1" parent="WIyWlLk6GJQsqaUBKTNV-1">
          <mxGeometry x="300" y="302.5" width="80" height="80" as="geometry" />
        </mxCell>
        <mxCell id="ZswmSur_MUluE2RUJ2E8-28" style="edgeStyle=orthogonalEdgeStyle;rounded=0;orthogonalLoop=1;jettySize=auto;html=1;exitX=0.5;exitY=0;exitDx=0;exitDy=0;entryX=0.25;entryY=1;entryDx=0;entryDy=0;" edge="1" parent="WIyWlLk6GJQsqaUBKTNV-1" source="ZswmSur_MUluE2RUJ2E8-22" target="ZswmSur_MUluE2RUJ2E8-21">
          <mxGeometry relative="1" as="geometry">
            <Array as="points">
              <mxPoint x="320" y="510" />
            </Array>
          </mxGeometry>
        </mxCell>
        <mxCell id="ZswmSur_MUluE2RUJ2E8-29" value="SYSTEM_ENV_GET初始化获取数据&lt;br&gt;SYSRTEM_ENV_SET 更新环境数据" style="edgeLabel;html=1;align=center;verticalAlign=middle;resizable=0;points=[];" vertex="1" connectable="0" parent="ZswmSur_MUluE2RUJ2E8-28">
          <mxGeometry x="0.2746" relative="1" as="geometry">
            <mxPoint x="-100" y="4" as="offset" />
          </mxGeometry>
        </mxCell>
        <mxCell id="ZswmSur_MUluE2RUJ2E8-38" style="edgeStyle=orthogonalEdgeStyle;rounded=0;orthogonalLoop=1;jettySize=auto;html=1;exitX=0.75;exitY=1;exitDx=0;exitDy=0;entryX=0.85;entryY=0.05;entryDx=0;entryDy=0;entryPerimeter=0;" edge="1" parent="WIyWlLk6GJQsqaUBKTNV-1" source="ZswmSur_MUluE2RUJ2E8-22" target="ZswmSur_MUluE2RUJ2E8-13">
          <mxGeometry relative="1" as="geometry" />
        </mxCell>
        <mxCell id="ZswmSur_MUluE2RUJ2E8-39" value="同步数据" style="edgeLabel;html=1;align=center;verticalAlign=middle;resizable=0;points=[];" vertex="1" connectable="0" parent="ZswmSur_MUluE2RUJ2E8-38">
          <mxGeometry x="-0.1379" y="3" relative="1" as="geometry">
            <mxPoint as="offset" />
          </mxGeometry>
        </mxCell>
        <mxCell id="ZswmSur_MUluE2RUJ2E8-22" value="&lt;span&gt;jsbridge&lt;/span&gt;" style="whiteSpace=wrap;html=1;aspect=fixed;" vertex="1" parent="WIyWlLk6GJQsqaUBKTNV-1">
          <mxGeometry x="300" y="510" width="80" height="80" as="geometry" />
        </mxCell>
      </root>
    </mxGraphModel>
  </diagram>
</mxfile>
